<svg width="106" height="105" viewBox="0 0 106 105" fill="none" xmlns="http://www.w3.org/2000/svg">
<path d="M70.0377 14H36.4636C32.4917 14 29.2542 17.2785 29.4041 21.2488C29.434 22.0459 29.464 22.843 29.509 23.625H13.6812C11.6877 23.625 10.084 25.2342 10.084 27.2344C10.084 41.1605 15.1051 50.8457 21.8499 57.4178C28.4898 63.8996 36.5835 67.1631 42.5489 68.8174C46.0562 69.7949 48.4544 72.7275 48.4544 75.6752C48.4544 78.8184 45.9063 81.375 42.7737 81.375H38.8618C36.2088 81.375 34.0655 83.5256 34.0655 86.1875C34.0655 88.8494 36.2088 91 38.8618 91H67.6395C70.2925 91 72.4358 88.8494 72.4358 86.1875C72.4358 83.5256 70.2925 81.375 67.6395 81.375H63.7276C60.595 81.375 58.047 78.8184 58.047 75.6752C58.047 72.7275 60.4301 69.7799 63.9524 68.8174C69.9328 67.1631 78.0265 63.8996 84.6664 57.4178C91.3962 50.8457 96.4173 41.1605 96.4173 27.2344C96.4173 25.2342 94.8136 23.625 92.8201 23.625H76.9923C77.0373 22.843 77.0673 22.0609 77.0972 21.2488C77.2471 17.2785 74.0096 14 70.0377 14ZM17.4133 30.8438H30.0636C31.4275 44.3939 34.4402 53.4475 37.8426 59.5082C34.1104 57.8539 30.2284 55.5229 26.871 52.2443C22.0747 47.5672 18.1777 40.8146 17.4283 30.8438H17.4133ZM79.6453 52.2443C76.2879 55.5229 72.4059 57.8539 68.6737 59.5082C72.0761 53.4475 75.0888 44.3939 76.4527 30.8438H89.103C88.3386 40.8146 84.4416 47.5672 79.6603 52.2443H79.6453Z" fill="white"/>
</svg>
