<svg width="106" height="105" viewBox="0 0 106 105" fill="none" xmlns="http://www.w3.org/2000/svg">
<path d="M95.3633 44.3113H78.418C76.9618 44.3113 75.7813 45.4919 75.7813 46.948V50.3633H72.582V28.7923C72.582 27.3361 71.4015 26.1556 69.9453 26.1556H64.1094V22.7405C64.1094 21.2843 62.9288 20.1038 61.4727 20.1038H44.5273C43.0712 20.1038 41.8906 21.2843 41.8906 22.7405V26.1556H38.6914V16.6887C38.6914 15.2325 37.5109 14.052 36.0547 14.052H30.2188V10.6367C30.2188 9.18055 29.0382 8 27.582 8H10.6367C9.18055 8 8 9.18055 8 10.6367V22.7403C8 24.1965 9.18055 25.377 10.6367 25.377H27.582C29.0382 25.377 30.2188 24.1965 30.2188 22.7403V19.3254H33.418V38.2597H30.2188V34.8444C30.2188 33.3883 29.0382 32.2077 27.582 32.2077H10.6367C9.18055 32.2077 8 33.3883 8 34.8444V46.948C8 48.4042 9.18055 49.5847 10.6367 49.5847H27.582C29.0382 49.5847 30.2188 48.4042 30.2188 46.948V43.533H36.0547C37.5109 43.533 38.6914 42.3524 38.6914 40.8962V31.429H41.8906V34.8444C41.8906 36.3006 43.0712 37.4812 44.5273 37.4812H61.4727C62.9288 37.4812 64.1094 36.3006 64.1094 34.8444V31.429H67.3086V74.571H64.1094V71.1557C64.1094 69.6996 62.9288 68.519 61.4727 68.519H44.5273C43.0712 68.519 41.8906 69.6996 41.8906 71.1557V74.571H38.6914V65.1038C38.6914 63.6476 37.5109 62.467 36.0547 62.467H30.2188V59.052C30.2188 57.5958 29.0382 56.4153 27.582 56.4153H10.6367C9.18055 56.4153 8 57.5958 8 59.052V71.1556C8 72.6117 9.18055 73.7923 10.6367 73.7923H27.582C29.0382 73.7923 30.2188 72.6117 30.2188 71.1556V67.7403H33.418V86.6746H30.2188V83.2595C30.2188 81.8033 29.0382 80.6228 27.582 80.6228H10.6367C9.18055 80.6228 8 81.8033 8 83.2595V95.3633C8 96.8195 9.18055 98 10.6367 98H27.582C29.0382 98 30.2188 96.8195 30.2188 95.3633V91.948H36.0547C37.5109 91.948 38.6914 90.7675 38.6914 89.3113V79.8444H41.8906V83.2597C41.8906 84.7159 43.0712 85.8964 44.5273 85.8964H61.4727C62.9288 85.8964 64.1094 84.7159 64.1094 83.2597V79.8444H69.9453C71.4015 79.8444 72.582 78.6639 72.582 77.2077V55.6367H75.7813V59.052C75.7813 60.5081 76.9618 61.6887 78.418 61.6887H95.3633C96.8195 61.6887 98 60.5081 98 59.052V46.9482C98 45.4919 96.8195 44.3113 95.3633 44.3113Z" fill="white"/>
</svg>
