<svg width="106" height="105" viewBox="0 0 106 105" fill="none" xmlns="http://www.w3.org/2000/svg">
<path d="M37.6809 11.2778C40.5694 11.2778 42.9031 13.6022 42.9031 16.4792V21.6806H63.792V16.4792C63.792 13.6022 66.1257 11.2778 69.0142 11.2778C71.9028 11.2778 74.2364 13.6022 74.2364 16.4792V21.6806H82.0698C86.3944 21.6806 89.9031 25.1753 89.9031 29.4827V37.2848H16.792V29.4827C16.792 25.1753 20.3007 21.6806 24.6253 21.6806H32.4587V16.4792C32.4587 13.6022 34.7923 11.2778 37.6809 11.2778ZM16.792 42.4862H89.9031V86.698C89.9031 91.0054 86.3944 94.5001 82.0698 94.5001H24.6253C20.3007 94.5001 16.792 91.0054 16.792 86.698V42.4862ZM29.8475 52.8889C28.4114 52.8889 27.2364 54.0593 27.2364 55.4896V71.0938C27.2364 72.5242 28.4114 73.6945 29.8475 73.6945H45.5142C46.9503 73.6945 48.1253 72.5242 48.1253 71.0938V55.4896C48.1253 54.0593 46.9503 52.8889 45.5142 52.8889H29.8475Z" fill="white"/>
</svg>
