<svg width="106" height="105" viewBox="0 0 106 105" fill="none" xmlns="http://www.w3.org/2000/svg">
<path d="M8.80469 33.0557C8.80469 27.6933 13.1839 23.3335 18.5701 23.3335H57.6318C63.0181 23.3335 67.3973 27.6933 67.3973 33.0557V71.9446C67.3973 77.307 63.0181 81.6668 57.6318 81.6668H18.5701C13.1839 81.6668 8.80469 77.307 8.80469 71.9446V33.0557ZM94.1149 28.7719C95.7018 29.6226 96.6936 31.2632 96.6936 33.0557V71.9446C96.6936 73.7371 95.7018 75.3778 94.1149 76.2285C92.528 77.0792 90.6054 76.988 89.0948 75.9854L74.4467 66.2632L72.28 64.82V62.2224V42.7779V40.1803L74.4467 38.7371L89.0948 29.0149C90.5902 28.0275 92.5127 27.9212 94.1149 28.7719Z" fill="white"/>
</svg>
