<svg width="49" height="49" viewBox="0 0 49 49" fill="none" xmlns="http://www.w3.org/2000/svg">
<path fill-rule="evenodd" clip-rule="evenodd" d="M1.7295 18.5257C0.890216 19.1169 -0.00238337 17.8283 0.836904 17.237L3.13419 15.6212C3.56655 15.2703 4.21313 15.474 4.37258 16.0079L5.3761 18.6411C5.74204 19.6062 4.28689 20.1672 3.92104 19.2021L3.67444 18.5551C2.37599 23.2023 2.649 28.2133 4.4478 32.6836C4.83379 33.6446 3.3848 34.2364 2.9989 33.2755C1.08292 28.514 0.78418 23.1927 2.14152 18.2359L1.7295 18.5257ZM17.8672 47.2915C18.4133 48.1663 17.0928 49.0048 16.5466 48.13L15.0406 45.7189C14.7368 45.269 14.9664 44.652 15.4872 44.5136L18.1505 43.6232C19.1236 43.2988 19.6126 44.7909 18.6396 45.1153L18.0422 45.315C22.9619 46.8672 28.3237 46.5876 33.0526 44.5351C33.9976 44.1256 34.615 45.5745 33.6701 45.984C28.5988 48.1852 22.8439 48.478 17.5698 46.8152L17.8672 47.2915ZM47.3039 30.7709C48.1754 30.2242 49.0007 31.5622 48.1293 32.1089L45.7303 33.6171C45.2892 33.9154 44.6884 33.6931 44.5427 33.179L43.6661 30.4696C43.3485 29.4841 44.8342 28.9973 45.1518 29.9826L45.3146 30.4856C46.635 25.8252 46.3734 20.7932 44.5723 16.3036C44.1863 15.3425 45.6353 14.7507 46.0212 15.7117C47.9793 20.5931 48.2388 26.057 46.7613 31.1123L47.3039 30.7709ZM15.9519 4.43198C15.007 4.84147 14.3895 3.3926 15.3345 2.9831C20.5168 0.731801 26.4085 0.474719 31.7736 2.25595L31.4462 1.68092C30.9361 0.781817 32.2934 -0.00117033 32.8034 0.89783L34.2246 3.39437C34.4807 3.8458 34.2394 4.41491 33.7479 4.54779L31.016 5.33759C30.0268 5.6214 29.599 4.10456 30.5881 3.82084L31.069 3.68184C26.1201 2.09308 20.7155 2.36259 15.9519 4.43198ZM41.2812 34.399C37.5636 34.399 34.5504 37.4377 34.5504 41.187C34.5504 44.9362 37.5636 47.9748 41.2812 47.9748C44.9988 47.9748 48.012 44.9362 48.012 41.187C48.0119 37.4377 44.9988 34.399 41.2812 34.399ZM44.9765 43.2246C44.9765 43.2971 44.9409 43.3593 44.8787 43.3955C43.7122 44.0747 42.5455 44.7539 41.379 45.4332C41.3168 45.4694 41.2456 45.4694 41.1834 45.4332C40.0169 44.754 38.8503 44.0747 37.6838 43.3955C37.6216 43.3593 37.586 43.2971 37.586 43.2246C37.586 41.8661 37.586 40.5077 37.586 39.1492C37.586 39.0767 37.6216 39.0145 37.6838 38.9783C38.8503 38.2991 40.017 37.6199 41.1835 36.9406C41.2457 36.9044 41.3169 36.9044 41.3791 36.9406C42.5457 37.6198 43.7123 38.2991 44.8788 38.9783C44.941 39.0145 44.9766 39.0767 44.9766 39.1492C44.9765 40.5077 44.9765 41.8661 44.9765 43.2246ZM7.78949 34.399C4.07198 34.399 1.05876 37.4377 1.05876 41.187C1.05876 44.9362 4.07188 47.9748 7.78949 47.9748C11.5071 47.9748 14.5203 44.9362 14.5203 41.187C14.5203 37.4377 11.5071 34.399 7.78949 34.399ZM10.9247 44.1515C10.9247 44.2602 10.8369 44.3488 10.7291 44.3488H4.84993C4.74214 44.3488 4.65429 44.2602 4.65429 44.1515V38.2223C4.65429 38.1137 4.74214 38.025 4.84993 38.025H10.7292C10.8369 38.025 10.9248 38.1136 10.9248 38.2223L10.9247 44.1515ZM41.2213 1.4701C37.5037 1.4701 34.4905 4.50883 34.4905 8.25813C34.4905 12.0073 37.5037 15.0461 41.2213 15.0461C44.9389 15.0461 47.9521 12.0073 47.9521 8.25813C47.9521 4.50883 44.9389 1.4701 41.2213 1.4701ZM44.5516 10.8626C44.5157 10.9253 44.4539 10.9612 44.3821 10.9612H38.0605C37.9095 10.9612 37.8156 10.7973 37.8911 10.6653L41.0519 5.14404C41.127 5.01283 41.3156 5.01283 41.3907 5.14404L44.5516 10.6653C44.5876 10.728 44.5876 10.7999 44.5516 10.8626ZM7.78949 1.4701C4.07198 1.4701 1.05876 4.50883 1.05876 8.25813C1.05876 12.0073 4.07188 15.0461 7.78949 15.0461C11.5071 15.0461 14.5203 12.0073 14.5203 8.25813C14.5203 4.50883 11.5071 1.4701 7.78949 1.4701ZM7.78949 11.8797C5.80602 11.8797 4.19836 10.2584 4.19836 8.25803C4.19836 6.2576 5.80602 4.63628 7.78949 4.63628C9.77297 4.63628 11.3806 6.2576 11.3806 8.25803C11.3806 10.2584 9.77307 11.8797 7.78949 11.8797ZM23.5627 25.1207L21.9587 23.5031C20.9684 22.5043 19.4626 24.0229 20.4529 25.0216L22.8121 27.4008C23.2278 27.8201 23.9022 27.8201 24.3179 27.4008C25.7399 25.9666 27.1458 24.5165 28.5613 23.0758C29.5467 22.0729 28.0353 20.5652 27.0533 21.5653L23.5627 25.1207ZM36.0914 21.6937C35.7996 20.4568 35.3134 19.2755 34.6525 18.193L35.6537 15.9195L32.9959 13.2392L30.7409 14.2493C29.6677 13.5828 28.4966 13.0926 27.2706 12.7983L26.3848 10.4776H22.6262L21.7404 12.7983C20.5143 13.0926 19.3433 13.5828 18.27 14.2493L16.015 13.2392L13.3573 15.9196L14.3587 18.1936C13.6979 19.2759 13.2117 20.4571 12.9199 21.6937L10.6189 22.5869V26.3774L12.9196 27.2705C13.2115 28.5073 13.6976 29.6887 14.3585 30.7712L13.3573 33.0447L16.0151 35.725L18.2701 34.715C19.3433 35.3813 20.5143 35.8715 21.7405 36.1658L22.6262 38.4866H26.3848L27.2704 36.1663C28.4968 35.872 29.6683 35.3818 30.7416 34.7152L32.9958 35.7249L35.6537 33.0445L34.6521 30.7703C35.3128 29.688 35.7989 28.5071 36.0907 27.2705L38.3919 26.3772V22.5867L36.0914 21.6937ZM24.5054 31.7219C20.5407 31.7219 17.3267 28.4806 17.3267 24.4822C17.3267 20.4838 20.5407 17.2424 24.5054 17.2424C28.4701 17.2424 31.6842 20.4838 31.6842 24.4822C31.6842 28.4806 28.4701 31.7219 24.5054 31.7219Z" fill="white"/>
</svg>
