<svg width="51" height="48" viewBox="0 0 51 48" fill="none" xmlns="http://www.w3.org/2000/svg">
<path d="M49.5553 11.6015H39.7995V4.1888C39.7995 2.15506 38.3888 0.5 36.6552 0.5H13.2137C11.4801 0.5 10.0694 2.15506 10.0694 4.1888V11.6923C9.66018 11.6335 9.24272 11.6015 8.81704 11.6015C3.95558 11.6015 0 15.571 0 20.4495C0 25.328 3.95558 29.2985 8.81704 29.2985C9.24272 29.2985 9.66018 29.2665 10.0694 29.2077V43.8102C10.0694 45.8449 11.4801 47.5 13.2137 47.5H36.6552C38.3888 47.5 39.7995 45.8449 39.7995 43.8102V26.9139L40.8607 25.9564H49.5553C50.3512 25.9564 51 25.2826 51 24.455V13.1028C51 12.2753 50.3512 11.6015 49.5553 11.6015ZM42.3794 18.7975C42.3794 19.2525 42.0112 19.623 41.5568 19.623H41.2946C40.8401 19.623 40.472 19.2525 40.472 18.7975C40.472 18.3425 40.8401 17.972 41.2946 17.972H41.5568C42.0112 17.972 42.3794 18.3414 42.3794 18.7975ZM41.31 15.2397C41.7645 15.2397 42.1326 15.6091 42.1326 16.0652C42.1326 16.5213 41.7645 16.8907 41.31 16.8907H37.0737C36.6192 16.8907 36.2511 16.5202 36.2511 16.0652C36.2511 15.6102 36.6192 15.2397 37.0737 15.2397H41.31ZM39.7995 18.9523C39.7995 19.4083 39.4314 19.7777 38.977 19.7777H37.0737C36.6192 19.7777 36.2511 19.4083 36.2511 18.9523C36.2511 18.4962 36.6192 18.1268 37.0737 18.1268H38.977C39.4314 18.1268 39.7995 18.4972 39.7995 18.9523ZM22.1283 3.75172H27.7407C28.195 3.75172 28.5633 4.12132 28.5633 4.57719C28.5633 5.03305 28.195 5.40265 27.7407 5.40265H22.1283C21.6741 5.40265 21.3058 5.03305 21.3058 4.57719C21.3058 4.12132 21.6741 3.75172 22.1283 3.75172ZM7.18935 24.5974C7.06185 24.6717 6.91996 24.7078 6.77806 24.7078C6.63617 24.7078 6.49325 24.6717 6.36677 24.5974C6.11177 24.4499 5.95548 24.1775 5.95548 23.8824V17.0176C5.95548 16.7225 6.11177 16.4501 6.36677 16.3025C6.62075 16.155 6.93435 16.155 7.18935 16.3025L13.114 19.7354C13.369 19.882 13.5253 20.1554 13.5253 20.4495C13.5253 20.7435 13.369 21.017 13.114 21.1645L7.18935 24.5974ZM27.7408 44.2481H22.1284C21.6742 44.2481 21.3059 43.8785 21.3059 43.4226C21.3059 42.9667 21.6742 42.5971 22.1284 42.5971H27.7408C28.1951 42.5971 28.5634 42.9667 28.5634 43.4226C28.5634 43.8785 28.1951 44.2481 27.7408 44.2481ZM15.118 39.3454C15.5252 33.2339 20.4247 30.4407 24.9911 30.4407H24.9952C29.5092 30.4417 34.3531 33.237 34.7511 39.3454H15.118ZM24.9345 28.2264C22.4986 28.2264 20.5172 26.237 20.5172 23.7926C20.5172 21.3482 22.4986 19.3598 24.9345 19.3598C27.3703 19.3598 29.3517 21.3492 29.3517 23.7926C29.3517 26.236 27.3703 28.2264 24.9345 28.2264ZM38.1544 39.3454H36.3992C36.2203 36.1942 34.9977 33.5372 32.8354 31.6273C31.4493 30.4025 29.7425 29.5461 27.8701 29.1138C29.7332 28.0747 30.9969 26.0802 30.9969 23.7926C30.9969 20.4381 28.2772 17.7089 24.9345 17.7089C21.5917 17.7089 18.8721 20.4381 18.8721 23.7926C18.8721 26.0915 20.1491 28.0964 22.0287 29.1313C20.1707 29.5709 18.4721 30.4242 17.084 31.6397C14.8949 33.5579 13.6548 36.2097 13.4708 39.3454H11.7146V28.8052C15.1571 27.6001 17.6351 24.3106 17.6351 20.4495C17.6351 16.5883 15.1571 13.2999 11.7146 12.0947V8.65458H38.1544V11.6015H33.7114C32.9145 11.6015 32.2668 12.2753 32.2668 13.1028V24.455C32.2668 25.2826 32.9145 25.9564 33.7114 25.9564H34.4384V29.9041C34.4384 30.2292 34.6296 30.5253 34.9257 30.6574C35.0337 30.7059 35.1478 30.7296 35.2609 30.7296C35.4604 30.7296 35.6568 30.6564 35.811 30.5171L38.1544 28.4008V39.3454ZM43.5412 22.5596H37.0737C36.6192 22.5596 36.2511 22.1891 36.2511 21.7341C36.2511 21.2791 36.6192 20.9086 37.0737 20.9086H43.5412C43.9947 20.9086 44.3638 21.278 44.3638 21.7341C44.3638 22.1902 43.9947 22.5596 43.5412 22.5596ZM47.0424 21.7341C47.0424 22.1891 46.6743 22.5596 46.2198 22.5596C45.7653 22.5596 45.3972 22.1891 45.3972 21.7341V21.6846C45.3972 21.2295 45.7653 20.8591 46.2198 20.8591C46.6743 20.8591 47.0424 21.2295 47.0424 21.6846V21.7341ZM46.2198 19.7777H44.3165C43.8621 19.7777 43.494 19.4083 43.494 18.9523C43.494 18.4962 43.8621 18.1268 44.3165 18.1268H46.2198C46.6743 18.1268 47.0424 18.4972 47.0424 18.9523C47.0424 19.4073 46.6743 19.7777 46.2198 19.7777ZM46.2198 16.8907H43.8549C43.4004 16.8907 43.0323 16.5213 43.0323 16.0652C43.0323 15.6091 43.4004 15.2397 43.8549 15.2397H46.2198C46.6743 15.2397 47.0424 15.6091 47.0424 16.0652C47.0424 16.5213 46.6743 16.8907 46.2198 16.8907Z" fill="white"/>
</svg>
