<svg width="24" height="25" viewBox="0 0 24 25" fill="none" xmlns="http://www.w3.org/2000/svg">
<path d="M16.5 12.5C16.5 13.5406 16.4438 14.5438 16.3453 15.5H7.65469C7.55156 14.5438 7.5 13.5406 7.5 12.5C7.5 11.4594 7.55625 10.4562 7.65469 9.5H16.3453C16.4484 10.4562 16.5 11.4594 16.5 12.5ZM17.85 9.5H23.6203C23.8687 10.4609 24 11.4641 24 12.5C24 13.5359 23.8687 14.5391 23.6203 15.5H17.85C17.9484 14.5344 18 13.5312 18 12.5C18 11.4688 17.9484 10.4656 17.85 9.5ZM23.1281 8H17.6578C17.1891 5.00469 16.2609 2.49688 15.0656 0.89375C18.7359 1.86406 21.7219 4.52656 23.1234 8H23.1281ZM16.1391 8H7.86094C8.14687 6.29375 8.5875 4.78438 9.12656 3.56094C9.61875 2.45469 10.1672 1.65313 10.6969 1.14688C11.2219 0.65 11.6578 0.5 12 0.5C12.3422 0.5 12.7781 0.65 13.3031 1.14688C13.8328 1.65313 14.3812 2.45469 14.8734 3.56094C15.4172 4.77969 15.8531 6.28906 16.1391 8ZM6.34219 8H0.871875C2.27813 4.52656 5.25938 1.86406 8.93438 0.89375C7.73906 2.49688 6.81094 5.00469 6.34219 8ZM0.379688 9.5H6.15C6.05156 10.4656 6 11.4688 6 12.5C6 13.5312 6.05156 14.5344 6.15 15.5H0.379688C0.13125 14.5391 0 13.5359 0 12.5C0 11.4641 0.13125 10.4609 0.379688 9.5ZM9.12656 21.4344C8.58281 20.2156 8.14687 18.7063 7.86094 17H16.1391C15.8531 18.7063 15.4125 20.2156 14.8734 21.4344C14.3812 22.5406 13.8328 23.3422 13.3031 23.8484C12.7781 24.35 12.3422 24.5 12 24.5C11.6578 24.5 11.2219 24.35 10.6969 23.8531C10.1672 23.3469 9.61875 22.5453 9.12656 21.4391V21.4344ZM6.34219 17C6.81094 19.9953 7.73906 22.5031 8.93438 24.1063C5.25938 23.1359 2.27813 20.4734 0.871875 17H6.34219ZM23.1281 17C21.7219 20.4734 18.7406 23.1359 15.0703 24.1063C16.2656 22.5031 17.1891 19.9953 17.6625 17H23.1281Z" fill="white"/>
</svg>
