<svg width="51" height="51" viewBox="0 0 51 51" fill="none" xmlns="http://www.w3.org/2000/svg">
<path d="M7.47241 28.7731C3.36072 28.7731 0.0149332 32.111 0.0019839 36.2199C-0.0149497 36.8425 -0.0627633 44.0841 6.41565 50.5627C6.99936 51.1464 7.94785 51.1451 8.52827 50.5627C15.0067 44.0841 14.9599 36.8425 14.9429 36.2199C14.9299 32.111 11.5832 28.7731 7.47241 28.7731ZM7.47241 37.738C6.64665 37.738 5.97837 37.0686 5.97837 36.2438C5.97837 35.4181 6.64675 34.7497 7.47241 34.7497C8.29718 34.7497 8.96646 35.4181 8.96646 36.2438C8.96656 37.0686 8.29718 37.738 7.47241 37.738Z" fill="white"/>
<path d="M50.6833 8.59531L48.3795 5.63591L50.7192 2.36274C51.4255 1.37561 50.7174 0 49.504 0H37.5483C36.7225 0 36.0543 0.669376 36.0543 1.49414V17.7265H34.9127C34.088 17.7265 33.4187 18.3949 33.4187 19.2207C33.4187 20.0454 34.0881 20.7148 34.9127 20.7148H40.1829C41.0077 20.7148 41.6769 20.0454 41.6769 19.2207C41.6769 18.3949 41.0076 17.7265 40.1829 17.7265H39.0425V11.0069H49.5041C50.7475 11.0069 51.4447 9.57298 50.6833 8.59531Z" fill="white"/>
<path d="M43.3725 29.5074C42.1827 25.9143 38.7907 23.4074 34.921 23.4074H23.1285C22.5226 21.6488 20.8527 20.3812 18.8904 20.3812C16.931 20.3812 15.2621 21.6461 14.6543 23.4016C11.4978 23.2812 8.96658 20.6772 8.96658 17.4915V14.306C8.96658 11.044 11.6204 8.39021 14.8822 8.39021H21.274C21.8909 10.1291 23.5517 11.3785 25.4992 11.3785C27.9704 11.3785 29.9814 9.36738 29.9814 6.89607C29.9814 4.42476 27.9704 2.41364 25.4992 2.41364C23.5517 2.41364 21.8909 3.66304 21.274 5.40193H14.8822C9.97264 5.40193 5.97839 9.39627 5.97839 14.306V17.4915C5.97839 22.3328 9.86187 26.2837 14.6771 26.3931C15.3037 28.1137 16.956 29.3461 18.8903 29.3461C20.8245 29.3461 22.4756 28.115 23.1028 26.3956H34.9209C37.2788 26.3956 39.369 27.7958 40.3092 29.8677C38.8508 30.6082 37.8483 32.1221 37.8483 33.8664C37.8483 35.6106 38.8508 37.1246 40.3092 37.865C39.369 39.937 37.2788 41.3371 34.9209 41.3371H29.7243C29.1075 39.5981 27.4467 38.3488 25.4992 38.3488C23.5517 38.3488 21.8908 39.5982 21.274 41.3371H17.5717C16.7465 41.3371 16.0776 42.0061 16.0776 42.8312C16.0776 43.6564 16.7466 44.3254 17.5717 44.3254H21.274C21.8907 46.0648 23.5516 47.3137 25.4993 47.3137C27.447 47.3137 29.1079 46.0648 29.7246 44.3254H34.9211C38.7909 44.3254 42.1829 41.8183 43.3726 38.2252C45.3429 37.754 46.813 35.9789 46.813 33.8664C46.813 31.7538 45.3428 29.9786 43.3725 29.5074Z" fill="white"/>
</svg>
