<svg width="10" height="15" viewBox="0 0 10 15" fill="none" xmlns="http://www.w3.org/2000/svg">
<path d="M8.5 0H1.5C0.671875 0 0 0.629883 0 1.40625V13.5938C0 14.3701 0.671875 15 1.5 15H8.5C9.32812 15 10 14.3701 10 13.5938V1.40625C10 0.629883 9.32812 0 8.5 0ZM5 14.0625C4.44687 14.0625 4 13.6436 4 13.125C4 12.6064 4.44687 12.1875 5 12.1875C5.55313 12.1875 6 12.6064 6 13.125C6 13.6436 5.55313 14.0625 5 14.0625ZM8.5 10.8984C8.5 11.0918 8.33125 11.25 8.125 11.25H1.875C1.66875 11.25 1.5 11.0918 1.5 10.8984V1.75781C1.5 1.56445 1.66875 1.40625 1.875 1.40625H8.125C8.33125 1.40625 8.5 1.56445 8.5 1.75781V10.8984Z" fill="#989898"/>
</svg>
