<svg width="11" height="15" viewBox="0 0 11 15" fill="none" xmlns="http://www.w3.org/2000/svg">
<path d="M9 0H2C1.17188 0 0.5 0.629883 0.5 1.40625V13.5938C0.5 14.3701 1.17188 15 2 15H9C9.82812 15 10.5 14.3701 10.5 13.5938V1.40625C10.5 0.629883 9.82812 0 9 0ZM5.5 14.0625C4.94687 14.0625 4.5 13.6436 4.5 13.125C4.5 12.6064 4.94687 12.1875 5.5 12.1875C6.05313 12.1875 6.5 12.6064 6.5 13.125C6.5 13.6436 6.05313 14.0625 5.5 14.0625ZM9 10.8984C9 11.0918 8.83125 11.25 8.625 11.25H2.375C2.16875 11.25 2 11.0918 2 10.8984V1.75781C2 1.56445 2.16875 1.40625 2.375 1.40625H8.625C8.83125 1.40625 9 1.56445 9 1.75781V10.8984Z" fill="#989898"/>
</svg>
