<svg width="15" height="13" viewBox="0 0 15 13" fill="none" xmlns="http://www.w3.org/2000/svg">
<path d="M14.625 5.375H13.125V3.875C13.125 3.66875 12.9563 3.5 12.75 3.5H12C11.7937 3.5 11.625 3.66875 11.625 3.875V5.375H10.125C9.91875 5.375 9.75 5.54375 9.75 5.75V6.5C9.75 6.70625 9.91875 6.875 10.125 6.875H11.625V8.375C11.625 8.58125 11.7937 8.75 12 8.75H12.75C12.9563 8.75 13.125 8.58125 13.125 8.375V6.875H14.625C14.8313 6.875 15 6.70625 15 6.5V5.75C15 5.54375 14.8313 5.375 14.625 5.375ZM5.25 6.5C6.90703 6.5 8.25 5.15703 8.25 3.5C8.25 1.84297 6.90703 0.5 5.25 0.5C3.59297 0.5 2.25 1.84297 2.25 3.5C2.25 5.15703 3.59297 6.5 5.25 6.5ZM7.35 7.25H6.95859C6.43828 7.48906 5.85938 7.625 5.25 7.625C4.64062 7.625 4.06406 7.48906 3.54141 7.25H3.15C1.41094 7.25 0 8.66094 0 10.4V11.375C0 11.9961 0.503906 12.5 1.125 12.5H9.375C9.99609 12.5 10.5 11.9961 10.5 11.375V10.4C10.5 8.66094 9.08906 7.25 7.35 7.25Z" fill="white"/>
</svg>
