<svg width="15" height="12" viewBox="0 0 15 12" fill="none" xmlns="http://www.w3.org/2000/svg">
<path d="M14.625 4.875H13.125V3.375C13.125 3.16875 12.9563 3 12.75 3H12C11.7937 3 11.625 3.16875 11.625 3.375V4.875H10.125C9.91875 4.875 9.75 5.04375 9.75 5.25V6C9.75 6.20625 9.91875 6.375 10.125 6.375H11.625V7.875C11.625 8.08125 11.7937 8.25 12 8.25H12.75C12.9563 8.25 13.125 8.08125 13.125 7.875V6.375H14.625C14.8313 6.375 15 6.20625 15 6V5.25C15 5.04375 14.8313 4.875 14.625 4.875ZM5.25 6C6.90703 6 8.25 4.65703 8.25 3C8.25 1.34297 6.90703 0 5.25 0C3.59297 0 2.25 1.34297 2.25 3C2.25 4.65703 3.59297 6 5.25 6ZM7.35 6.75H6.95859C6.43828 6.98906 5.85938 7.125 5.25 7.125C4.64062 7.125 4.06406 6.98906 3.54141 6.75H3.15C1.41094 6.75 0 8.16094 0 9.9V10.875C0 11.4961 0.503906 12 1.125 12H9.375C9.99609 12 10.5 11.4961 10.5 10.875V9.9C10.5 8.16094 9.08906 6.75 7.35 6.75Z" fill="#888888"/>
</svg>
